<?xml version="1.0" encoding="UTF-8"?>
<svg id="Layer_1" data-name="Layer 1" xmlns="http://www.w3.org/2000/svg" viewBox="0 0 23.75 16.02">
  <defs>
    <style>
      .cls-1 {
        fill: #fff;
      }

      .cls-2 {
        fill: #ffc723;
      }
    </style>
  </defs>
  <g>
    <path class="cls-2" d="m14.71,8.13c1.43,0,2.65.52,3.5,1.48.75-.53,1.25-1.4,1.25-2.39,0-1.61-1.31-2.92-2.92-2.92s-2.92,1.31-2.92,2.92c0,.22.03.44.07.65.05.12.09.23.12.33.23-.04.54-.07.89-.07Z"/>
    <path class="cls-2" d="m16.54,3.19c.19,0,.35-.16.35-.35V.35c0-.19-.16-.35-.35-.35s-.35.16-.35.35v2.49c0,.19.16.35.35.35Z"/>
    <path class="cls-2" d="m19.88,4.37l1.76-1.76c.14-.14.14-.36,0-.49-.14-.14-.36-.14-.49,0l-1.76,1.76c-.14.14-.14.36,0,.49.14.14.36.14.49,0Z"/>
    <path class="cls-2" d="m23.4,6.87h-2.49c-.19,0-.35.16-.35.35s.16.35.35.35h2.49c.19,0,.35-.16.35-.35s-.16-.35-.35-.35Z"/>
    <path class="cls-2" d="m19.88,10.07c-.14-.14-.36-.14-.49,0-.14.14-.14.36,0,.49l1.76,1.76c.14.14.36.14.49,0,.14-.14.14-.36,0-.49l-1.76-1.76Z"/>
    <path class="cls-2" d="m13.2,4.37c.14.14.36.14.49,0,.14-.14.14-.36,0-.49l-1.76-1.76c-.14-.14-.36-.14-.49,0-.14.14-.14.36,0,.49l1.76,1.76Z"/>
  </g>
  <path class="cls-1" d="m13.48,8.75s-.97-4.5-5.84-4.01c-2.52.25-4.58,2.05-4.58,4.58,0,.19.02.38.04.56-.01,0-.03,0-.04,0-1.69,0-3.07,1.38-3.07,3.07s1.37,3.07,3.07,3.07h13.6c1.99-.99,2.68-3.69,1.66-5.43-1.6-2.74-4.85-1.84-4.85-1.84Z"/>
</svg>