<?xml version="1.0" encoding="UTF-8"?>
<svg id="Layer_1" data-name="Layer 1" xmlns="http://www.w3.org/2000/svg" viewBox="0 0 23.52 15.18">
  <defs>
    <style>
      .cls-1 {
        fill: #fff;
      }

      .cls-2 {
        fill: #fdfdfd;
      }
    </style>
  </defs>
  <path class="cls-1" d="m14.93,7.12s-1.07-4.99-6.46-4.45c-2.78.28-5.07,2.27-5.07,5.08,0,.21.02.42.04.62-.01,0-.03,0-.04,0-1.88,0-3.4,1.52-3.4,3.4s1.52,3.4,3.4,3.4h15.06c2.2-1.09,2.96-4.09,1.84-6.02-1.77-3.04-5.37-2.04-5.37-2.04Z"/>
  <path class="cls-2" d="m23.52,6.09c-1.78.97-3.97.77-5.37-.64-1.43-1.43-1.61-3.65-.6-5.45-1.96.58-3.4,2.38-3.45,4.52.03.04.06.08.09.11.57.78.88,1.55,1.03,2,.26-.04.63-.09,1.06-.09,1.36,0,3.21.42,4.37,2.41.03.05.05.09.08.14,1.32-.53,2.35-1.64,2.79-3.01Z"/>
</svg>