<?xml version="1.0" encoding="UTF-8"?>
<svg id="Layer_1" data-name="Layer 1" xmlns="http://www.w3.org/2000/svg" viewBox="0 0 23.33 23.33">
  <defs>
    <style>
      .cls-1 {
        fill: #ffc723;
      }
    </style>
  </defs>
  <circle class="cls-1" cx="11.67" cy="11.67" r="4.72"/>
  <g>
    <path class="cls-1" d="m11.67,5.16h0c-.31,0-.57-.25-.57-.57V.57c0-.31.25-.57.57-.57h0c.31,0,.57.25.57.57v4.02c0,.31-.25.57-.57.57Z"/>
    <path class="cls-1" d="m11.67,23.33h0c-.31,0-.57-.25-.57-.57v-4.02c0-.31.25-.57.57-.57h0c.31,0,.57.25.57.57v4.02c0,.31-.25.57-.57.57Z"/>
  </g>
  <g>
    <path class="cls-1" d="m16.27,7.06h0c-.22-.22-.22-.58,0-.8l2.85-2.85c.22-.22.58-.22.8,0h0c.22.22.22.58,0,.8l-2.85,2.85c-.22.22-.58.22-.8,0Z"/>
    <path class="cls-1" d="m3.42,19.92h0c-.22-.22-.22-.58,0-.8l2.85-2.85c.22-.22.58-.22.8,0h0c.22.22.22.58,0,.8l-2.85,2.85c-.22.22-.58.22-.8,0Z"/>
  </g>
  <g>
    <path class="cls-1" d="m18.18,11.67h0c0-.31.25-.57.57-.57h4.02c.31,0,.57.25.57.57h0c0,.31-.25.57-.57.57h-4.02c-.31,0-.57-.25-.57-.57Z"/>
    <path class="cls-1" d="m0,11.67h0c0-.31.25-.57.57-.57h4.02c.31,0,.57.25.57.57h0c0,.31-.25.57-.57.57H.57c-.31,0-.57-.25-.57-.57Z"/>
  </g>
  <g>
    <path class="cls-1" d="m16.27,16.27h0c.22-.22.58-.22.8,0l2.85,2.85c.22.22.22.58,0,.8h0c-.22.22-.58.22-.8,0l-2.85-2.85c-.22-.22-.22-.58,0-.8Z"/>
    <path class="cls-1" d="m3.42,3.42h0c.22-.22.58-.22.8,0l2.85,2.85c.22.22.22.58,0,.8h0c-.22.22-.58.22-.8,0l-2.85-2.85c-.22-.22-.22-.58,0-.8Z"/>
  </g>
</svg>