<?xml version="1.0" encoding="UTF-8"?>
<svg id="Layer_1" data-name="Layer 1" xmlns="http://www.w3.org/2000/svg" viewBox="0 0 65 65">
  <defs>
    <style>
      .cls-1 {
        fill: #fff;
      }

      .cls-2 {
        fill: #ffd93b;
      }

      .cls-3 {
        stroke-width: 2px;
      }

      .cls-3, .cls-4 {
        fill: none;
        stroke: #ffd93b;
        stroke-linecap: round;
      }

      .cls-4 {
        stroke-width: 1.8px;
      }
    </style>
  </defs>
  <path class="cls-2" d="m44.5,46.52c0,1.56-.3,3.05-.84,4.42-.15.4-.33.78-.53,1.16h-21.26c-.2-.38-.38-.76-.53-1.16-.54-1.37-.84-2.86-.84-4.42,0-6.63,5.37-12,12-12s12,5.37,12,12Z"/>
  <g>
    <line class="cls-3" x1="4.5" y1="46.52" x2="14.5" y2="46.52"/>
    <line class="cls-3" x1="50.5" y1="46.52" x2="60.5" y2="46.52"/>
    <line class="cls-4" x1="11.4" y1="28.42" x2="18.6" y2="35.62"/>
    <line class="cls-4" x1="53.6" y1="28.42" x2="46.4" y2="35.62"/>
  </g>
  <rect class="cls-1" x=".86" y="50.94" width="63.28" height="2.43"/>
  <path class="cls-1" d="m31.29,11.64v14.37l-6.61-6.61-1.65,1.68,9.44,9.44,9.44-9.44-1.65-1.68-6.61,6.61v-14.37h-2.36Z"/>
</svg>