<?xml version="1.0" encoding="utf-8"?>
<!-- Generator: Adobe Illustrator 27.6.1, SVG Export Plug-In . SVG Version: 6.00 Build 0)  -->
<svg version="1.1" id="Layer_1" xmlns="http://www.w3.org/2000/svg" xmlns:xlink="http://www.w3.org/1999/xlink" x="0px" y="0px"
	 viewBox="0 0 65 65" style="enable-background:new 0 0 65 65;" xml:space="preserve">
<style type="text/css">
	.st0{fill:#FFD93B;}
	.st1{fill:none;stroke:#FFD93B;stroke-width:2;}
	.st2{fill:none;stroke:#FFD93B;stroke-width:1.8;}
	.st3{fill:#FFFFFF;}
</style>
<path class="st0" d="M44.5,46.5c0,1.6-0.3,3-0.8,4.4c-0.2,0.4-0.3,0.8-0.5,1.2H21.9c-0.2-0.4-0.4-0.8-0.5-1.2
	c-0.5-1.4-0.8-2.9-0.8-4.4c0-6.6,5.4-12,12-12S44.5,39.9,44.5,46.5z"/>
<line class="st1" x1="4.5" y1="46.5" x2="14.5" y2="46.5"/>
<line class="st1" x1="50.5" y1="46.5" x2="60.5" y2="46.5"/>
<line class="st2" x1="11.4" y1="28.4" x2="18.6" y2="35.6"/>
<line class="st2" x1="53.6" y1="28.4" x2="46.4" y2="35.6"/>
<rect x="0.9" y="50.9" class="st3" width="63.3" height="2.4"/>
<path class="st3" d="M31.3,11.6V26l-6.6-6.6L23,21.1l9.4,9.4l9.4-9.4l-1.7-1.7L33.6,26V11.6C33.6,11.6,31.3,11.6,31.3,11.6z"/>
</svg>
